<?xml version="1.0" encoding="utf-8"?>
<svg id="Layer_1" data-name="Layer 1" xmlns="http://www.w3.org/2000/svg" viewBox="0 0 200 200">
  <defs>
    <style>.cls-1{fill:#404041;}.cls-2{fill:#fff;}</style>
    <linearGradient id="gradientFill-1" x1="0" x2="1" y1="0" y2="1" gradientUnits="objectBoundingBox" spreadMethod="pad">
      <stop offset="0" stop-color="rgb(203,206,208)" stop-opacity="1"/>
      <stop offset="1" stop-color="rgb(132,131,139)" stop-opacity="1"/>
    </linearGradient>
    <linearGradient id="gradientFill-2" x1="0" x2="1" y1="0" y2="1" gradientUnits="objectBoundingBox" spreadMethod="pad">
      <stop offset="0" stop-color="rgb(39,109,195)" stop-opacity="1"/>
      <stop offset="1" stop-color="rgb(22,92,170)" stop-opacity="1"/>
    </linearGradient>
  </defs>
  <circle class="cls-1" cx="99.7" cy="99.83" r="96.96" transform="translate(-17.84 177.87) rotate(-78.62)"/>
  <path d="M 96.232 143.479 C 48.341 143.479 9.52 117.468 9.52 85.404 C 9.52 53.327 48.341 27.331 96.232 27.331 C 144.107 27.331 182.928 53.327 182.928 85.404 C 182.928 117.468 144.107 143.479 96.232 143.479 Z M 109.495 50.042 C 73.1 50.042 43.586 67.81 43.586 89.737 C 43.586 111.666 73.1 129.432 109.495 129.432 C 145.891 129.432 172.76 117.28 172.76 89.737 C 172.76 62.194 145.891 50.042 109.495 50.042 Z" fill="url(#gradientFill-1)" fill-rule="evenodd" style="stroke-width: 1;"/>
  <path d="M 141.573 117.28 C 141.573 117.28 146.813 118.859 149.863 120.392 C 150.926 120.94 152.756 122.004 154.07 123.411 C 155.368 124.772 155.995 126.164 155.995 126.164 L 176.671 161.042 L 143.247 161.057 L 127.621 131.701 C 127.621 131.701 124.416 126.195 122.445 124.615 C 120.802 123.27 120.098 122.801 118.472 122.801 C 117.345 122.801 110.543 122.801 110.543 122.801 L 110.543 161.042 L 80.967 161.042 L 80.967 63.383 L 140.369 63.383 C 140.369 63.383 167.411 63.883 167.411 89.612 C 167.411 115.356 141.573 117.28 141.573 117.28 Z M 128.701 84.575 L 110.793 84.56 L 110.793 101.17 L 128.701 101.155 C 128.701 101.155 136.991 101.139 136.991 92.709 C 136.991 84.121 128.701 84.575 128.701 84.575 Z" fill="url(#gradientFill-2)" fill-rule="evenodd" style="stroke-width: 1;"/>
</svg>