<?xml version="1.0" encoding="utf-8"?>
<svg id="Layer_1" data-name="Layer 1" xmlns="http://www.w3.org/2000/svg" viewBox="0 0 574.58 126.67">
    <defs>
        <style>.cls-1{fill:#404041;}.cls-2{fill:#fff;}.cls-3{fill:#4d4d4d;}</style>
        <linearGradient id="gradientFill-1" x1="0" x2="1" y1="0" y2="1" gradientUnits="objectBoundingBox" spreadMethod="pad">
            <stop offset="0" stop-color="rgb(203,206,208)" stop-opacity="1"/>
            <stop offset="1" stop-color="rgb(132,131,139)" stop-opacity="1"/>
        </linearGradient>
        <linearGradient id="gradientFill-2" x1="0" x2="1" y1="0" y2="1" gradientUnits="objectBoundingBox" spreadMethod="pad">
            <stop offset="0" stop-color="rgb(39,109,195)" stop-opacity="1"/>
            <stop offset="1" stop-color="rgb(22,92,170)" stop-opacity="1"/>
        </linearGradient>
        <path id="path-0" d="M 135.876 64.103 C 170.719 64.103 197.072 62.127 218.555 65.169" style="fill: none;"/>
    </defs>
    <circle class="cls-1" cx="69.95" cy="63.56" r="54.33" transform="translate(-6.17 119.59) rotate(-78.62)"/>
    <path d="M 68.075 86.469 C 41.747 86.469 20.405 72.175 20.405 54.543 C 20.405 36.91 41.747 22.616 68.075 22.616 C 94.404 22.616 115.746 36.91 115.746 54.543 C 115.746 72.175 94.404 86.469 68.075 86.469 Z M 75.374 35.098 C 55.363 35.098 39.14 44.868 39.14 56.924 C 39.14 68.979 55.363 78.749 75.374 78.749 C 95.383 78.749 110.152 72.069 110.152 56.924 C 110.152 41.783 95.383 35.098 75.374 35.098 Z" fill="url(#gradientFill-1)" fill-rule="evenodd" style="stroke-width: 1;"/>
    <path d="M 93.002 72.064 C 93.002 72.064 95.892 72.936 97.567 73.783 C 98.148 74.077 99.152 74.667 99.879 75.436 C 100.592 76.192 100.939 76.957 100.939 76.957 L 112.309 96.129 L 93.931 96.137 L 85.336 79.997 C 85.336 79.997 83.576 76.975 82.494 76.099 C 81.588 75.369 81.203 75.107 80.31 75.107 C 79.691 75.107 75.948 75.107 75.948 75.107 L 75.948 96.125 L 59.686 96.133 L 59.686 42.442 L 92.345 42.442 C 92.345 42.442 107.217 42.709 107.217 56.859 C 107.217 71.013 93.002 72.064 93.002 72.064 Z M 85.93 54.086 L 76.085 54.082 L 76.079 63.209 L 85.93 63.205 C 85.93 63.205 90.494 63.193 90.494 58.564 C 90.494 53.838 85.93 54.086 85.93 54.086 Z" fill="url(#gradientFill-2)" fill-rule="evenodd" style="stroke-width: 1;"/>
</svg>