<?xml version="1.0" encoding="utf-8"?>
<svg id="Layer_1" data-name="Layer 1" xmlns="http://www.w3.org/2000/svg" viewBox="0 0 574.58 126.67">
    <defs>
        <style>.cls-1{fill:#fff;}.cls-2{fill:#404041;}</style>
        <linearGradient id="gradientFill-1" x1="0" x2="1" y1="0" y2="1" gradientUnits="objectBoundingBox" spreadMethod="pad">
            <stop offset="0" stop-color="rgb(203,206,208)" stop-opacity="1"/>
            <stop offset="1" stop-color="rgb(132,131,139)" stop-opacity="1"/>
        </linearGradient>
        <linearGradient id="gradientFill-2" x1="0" x2="1" y1="0" y2="1" gradientUnits="objectBoundingBox" spreadMethod="pad">
            <stop offset="0" stop-color="rgb(39,109,195)" stop-opacity="1"/>
            <stop offset="1" stop-color="rgb(22,92,170)" stop-opacity="1"/>
        </linearGradient>
    </defs>
    <circle class="cls-1" cx="69.95" cy="63.56" r="54.33" transform="translate(-6.17 119.59) rotate(-78.62)"/>
    <path d="M 67.309 87.823 C 40.971 87.823 19.617 73.522 19.617 55.885 C 19.617 38.243 40.971 23.941 67.309 23.941 C 93.648 23.941 115.002 38.243 115.002 55.885 C 115.002 73.522 93.648 87.823 67.309 87.823 Z M 74.611 36.428 C 54.59 36.428 38.361 46.204 38.361 58.267 C 38.361 70.326 54.59 80.102 74.611 80.102 C 94.631 80.102 109.405 73.417 109.405 58.267 C 109.405 43.118 94.631 36.428 74.611 36.428 Z" fill="url(#gradientFill-1)" fill-rule="evenodd" style="stroke-width: 1;"/>
    <path d="M 92.248 73.413 C 92.248 73.413 95.139 74.283 96.813 75.135 C 97.395 75.428 98.405 76.014 99.13 76.788 C 99.839 77.54 100.188 78.31 100.188 78.31 L 111.563 97.488 L 93.175 97.496 L 84.58 81.35 C 84.58 81.35 82.818 78.323 81.733 77.448 C 80.833 76.718 80.443 76.456 79.552 76.456 C 78.931 76.456 75.184 76.456 75.184 76.456 L 75.188 97.485 L 58.915 97.492 L 58.915 43.773 L 91.588 43.773 C 91.588 43.773 106.471 44.045 106.471 58.202 C 106.471 72.359 92.248 73.413 92.248 73.413 Z M 85.174 55.425 L 75.324 55.421 L 75.319 64.555 L 85.174 64.55 C 85.174 64.55 89.739 64.537 89.739 59.903 C 89.739 55.181 85.174 55.425 85.174 55.425 Z" fill="url(#gradientFill-2)" fill-rule="evenodd" style="stroke-width: 1;"/>
</svg>